<svg xmlns="http://www.w3.org/2000/svg" width="54" height="56" viewBox="0 0 54 56">
  <g id="Group_13" data-name="Group 13" transform="translate(-1450 -987)">
    <rect id="Rectangle_5" data-name="Rectangle 5" width="54" height="56" rx="11" transform="translate(1450 987)" fill="#5c8ce4"/>
    <g id="noun-send-6848667" transform="translate(1446.99 985)">
      <path id="Path_6" data-name="Path 6" d="M16.271,28.736l9.647,3.64L34.989,24.8a.545.545,0,0,1,.767.767l-7.572,9.071,3.64,9.647a1.951,1.951,0,0,0,3.657-.01l9.961-26.853A1.808,1.808,0,0,0,43.775,15a1.864,1.864,0,0,0-.641.118L16.28,25.073a1.955,1.955,0,0,0,0,3.662Z" fill="#fff"/>
    </g>
  </g>
</svg>
